<?xml version="1.0" encoding="utf-8"?>
<!-- Generator: Adobe Illustrator 19.0.0, SVG Export Plug-In . SVG Version: 6.00 Build 0)  -->
<svg version="1.1" id="Layer_1" xmlns="http://www.w3.org/2000/svg" xmlns:xlink="http://www.w3.org/1999/xlink" x="0px" y="0px"
	 viewBox="0 0 500 268" style="enable-background:new 0 0 500 268;" xml:space="preserve">
<style type="text/css">
	.st0{fill:#2D3B4E;}
	.st1{fill:#468CCB;}
	.st2{fill:#F2F2F2;}
</style>
<circle id="XMLID_23_" class="st0" cx="366" cy="133" r="124"/>
<path id="XMLID_20_" class="st1" d="M459.4,133c0-51.8-41.7-93.5-93.5-93.5s-93.5,41.7-93.5,93.5"/>
<path id="XMLID_25_" class="st2" d="M272.5,133c0,51.8,41.7,93.5,93.5,93.5s93.5-41.7,93.5-93.5"/>
<rect id="XMLID_24_" x="261" y="115" class="st0" width="216.8" height="36.5"/>
<circle id="XMLID_26_" class="st0" cx="366" cy="133" r="41.3"/>
<circle id="XMLID_28_" class="st2" cx="366" cy="134.8" r="20.2"/>
<path id="XMLID_92_" class="st0" d="M8.4,34c0-5.9,2.4-11.5,6.9-16.3S26.2,10,33.5,10c4.2,0,8.3,1,11.8,3.1c3.8,2.1,6.9,4.9,9.4,8.7
	l55.6,88.6l53.9-88.3c2.4-3.8,5.6-6.9,9.4-9c3.8-2.1,8-3.1,12.2-3.1c7.6,0,13.6,2.4,18.1,7.3c4.5,4.9,6.9,10.4,6.9,16.7
	c0,4.5-1.4,9-3.8,12.9L136,156.7v76.8c0,6.9-2.4,13.2-7.6,18.1c-5.2,4.9-11.5,7.6-18.8,7.6c-6.9,0-13.2-2.4-18.1-7.6
	c-4.9-5.2-7.6-11.1-7.6-18.1v-76.8L12.3,46.2C9.8,43,8.8,38.9,8.4,34z"/>
</svg>
