<?xml version="1.0" encoding="utf-8"?>
<!-- Generator: Adobe Illustrator 19.0.0, SVG Export Plug-In . SVG Version: 6.00 Build 0)  -->
<svg version="1.1" id="Layer_1" xmlns="http://www.w3.org/2000/svg" xmlns:xlink="http://www.w3.org/1999/xlink" x="0px" y="0px"
	 viewBox="141 179 781 144" style="enable-background:new 141 179 781 144;" xml:space="preserve">
<style type="text/css">
	.st0{fill:#2C3B4E;}
	.st1{fill:#1194F6;}
	.st2{fill:#F1F1F2;}
</style>
<circle id="XMLID_23_" class="st0" cx="848.3" cy="250.6" r="35.7"/>
<path id="XMLID_20_" class="st1" d="M875.2,250.6c0-14.9-12-26.9-26.9-26.9s-26.9,12-26.9,26.9"/>
<path id="XMLID_25_" class="st2" d="M821.4,250.6c0,14.9,12,26.9,26.9,26.9s26.9-12,26.9-26.9"/>
<rect id="XMLID_24_" x="818.1" y="245.4" class="st0" width="62.4" height="10.5"/>
<circle id="XMLID_26_" class="st0" cx="848.3" cy="250.6" r="11.9"/>
<circle id="XMLID_28_" class="st2" cx="848.3" cy="251.1" r="5.8"/>
<g id="XMLID_74_">
	<path id="XMLID_75_" class="st0" d="M196.3,279.5v-55.3c0-2.3,0.8-4.3,2.5-6c1.6-1.7,3.6-2.5,6-2.5h24.5c3.8,0,7.2,0.6,10.2,1.8
		s5.4,2.8,7.5,4.9c2,2.1,3.5,4.5,4.5,7.2c1,2.8,1.5,5.7,1.5,8.8s-0.5,6-1.6,8.8s-2.6,5.2-4.6,7.2c-2,2-4.4,3.7-7.4,4.9
		c-2.9,1.2-6.3,1.9-10.1,1.9h-18v18.3c0,2-0.7,3.8-2.2,5.2s-3.3,2.2-5.4,2.2c-2,0-3.8-0.7-5.2-2.2
		C197,283.3,196.3,281.6,196.3,279.5z M211.3,248h16c3,0,5.4-0.9,7.4-2.6s3-4,3-7s-1-5.3-3-7s-4.5-2.5-7.4-2.5h-16V248z"/>
	<path id="XMLID_78_" class="st0" d="M258.9,251c0-5.3,0.9-10.2,2.7-14.7c1.8-4.5,4.4-8.3,7.7-11.6c3.3-3.2,7.2-5.8,11.7-7.6
		s9.4-2.7,14.7-2.7c5.4,0,10.3,0.9,14.8,2.7s8.4,4.3,11.7,7.6c3.3,3.2,5.8,7.1,7.7,11.6c1.8,4.5,2.7,9.4,2.7,14.7
		s-0.9,10.2-2.7,14.7s-4.4,8.3-7.7,11.6c-3.3,3.2-7.2,5.8-11.7,7.6c-4.5,1.8-9.5,2.7-14.8,2.7s-10.2-0.9-14.7-2.7
		c-4.5-1.8-8.4-4.3-11.7-7.6c-3.3-3.2-5.8-7.1-7.7-11.6C259.8,261.2,258.9,256.3,258.9,251z M274.3,251c0,3.3,0.5,6.4,1.5,9.2
		c1,2.8,2.4,5.3,4.3,7.3c1.8,2.1,4.1,3.7,6.7,4.9c2.6,1.2,5.6,1.8,8.8,1.8s6.2-0.6,8.8-1.8c2.7-1.2,4.9-2.8,6.8-4.9
		c1.9-2.1,3.3-4.5,4.3-7.3c1-2.8,1.5-5.9,1.5-9.2s-0.5-6.4-1.5-9.2s-2.5-5.3-4.3-7.4c-1.9-2.1-4.1-3.7-6.8-4.9
		c-2.6-1.2-5.6-1.7-8.9-1.7c-3.2,0-6.2,0.6-8.8,1.7c-2.6,1.2-4.9,2.8-6.7,4.9c-1.8,2.1-3.3,4.6-4.3,7.4
		C274.8,244.6,274.3,247.7,274.3,251z"/>
	<path id="XMLID_81_" class="st0" d="M343.1,279.5v-57c0-2,0.7-3.8,2.2-5.2s3.3-2.2,5.4-2.2c2,0,3.8,0.7,5.2,2.2
		c1.4,1.4,2.2,3.2,2.2,5.2v24.7l23.3-29.4c0.6-0.9,1.4-1.5,2.4-1.9s2-0.6,3-0.6c1.9,0,3.6,0.7,5,2s2.2,3,2.2,4.9
		c0,1.7-0.5,3.2-1.5,4.4l-18.9,22.2l21.3,26.5c1,1.3,1.4,2.8,1.4,4.2c0,1.8-0.7,3.5-2.1,5s-3.1,2.3-5.2,2.3c-1.1,0-2.2-0.2-3.2-0.7
		s-1.8-1.2-2.6-2.2l-19.7-26l-5.5,6.6v14.9c0,2-0.7,3.8-2.2,5.2c-1.5,1.4-3.3,2.2-5.4,2.2c-2,0-3.8-0.7-5.2-2.2
		C343.9,283.3,343.1,281.6,343.1,279.5z"/>
	<path id="XMLID_83_" class="st0" d="M410.4,277.8v-53.6c0-2.3,0.8-4.3,2.5-6s3.6-2.5,6-2.5h35.6c1.8,0,3.3,0.7,4.5,2
		c1.3,1.3,1.9,2.9,1.9,4.7s-0.6,3.4-1.9,4.6c-1.3,1.3-2.8,1.9-4.5,1.9h-29.1v14.9h28.4c1.8,0,3.3,0.7,4.5,2c1.3,1.3,1.9,2.9,1.9,4.7
		s-0.6,3.4-1.9,4.6c-1.3,1.3-2.8,1.9-4.5,1.9h-28.4v16h29.1c1.8,0,3.3,0.6,4.5,1.9c1.3,1.3,1.9,2.8,1.9,4.5c0,1.9-0.6,3.5-1.9,4.8
		s-2.8,2-4.5,2h-35.6c-2.3,0-4.3-0.8-6-2.5C411.2,282.2,410.4,280.2,410.4,277.8z"/>
	<path id="XMLID_85_" class="st0" d="M472,279.5v-55.3c0-2.3,0.8-4.3,2.5-6s3.6-2.5,6-2.5c0.9-0.1,1.8-0.2,2.7-0.2
		c2.4,0,4.6,0.3,6.6,1c2.8,0.9,4.8,2.9,6,6l14.4,35.7l14.4-35.7c0.9-2,2.2-3.7,4-5s3.9-1.9,6.2-1.9c1-0.2,1.9-0.3,2.8-0.3
		c0.7,0,1.4,0.1,2.1,0.2c1.6,0.2,3.1,0.6,4.4,1.3c1.3,0.7,2.3,1.6,3.1,2.8s1.2,2.7,1.2,4.4v55.2c0,2-0.7,3.8-2.2,5.3
		s-3.3,2.2-5.4,2.2c-2,0-3.8-0.7-5.2-2.2c-1.5-1.5-2.2-3.2-2.2-5.3v-42.3l-19.1,47.3c-0.3,0.8-0.9,1.4-1.6,2
		c-0.7,0.6-1.6,0.8-2.6,0.8c-0.9,0-1.7-0.3-2.4-0.8s-1.2-1.2-1.5-2L487,236.9v42.6c0,2-0.7,3.8-2.2,5.2c-1.5,1.4-3.3,2.2-5.4,2.2
		c-2,0-3.8-0.7-5.2-2.2S472,281.6,472,279.5z"/>
	<path id="XMLID_87_" class="st0" d="M559.1,251c0-5.3,0.9-10.2,2.7-14.7s4.4-8.3,7.7-11.6c3.3-3.2,7.2-5.8,11.7-7.6
		s9.4-2.7,14.7-2.7c5.4,0,10.3,0.9,14.8,2.7s8.4,4.3,11.7,7.6c3.3,3.2,5.8,7.1,7.7,11.6c1.8,4.5,2.7,9.4,2.7,14.7
		s-0.9,10.2-2.7,14.7s-4.4,8.3-7.7,11.6c-3.3,3.2-7.2,5.8-11.7,7.6c-4.5,1.8-9.5,2.7-14.8,2.7s-10.2-0.9-14.7-2.7
		c-4.5-1.8-8.4-4.3-11.7-7.6c-3.3-3.2-5.8-7.1-7.7-11.6C560,261.2,559.1,256.3,559.1,251z M574.5,251c0,3.3,0.5,6.4,1.5,9.2
		c1,2.8,2.4,5.3,4.3,7.3c1.8,2.1,4.1,3.7,6.7,4.9c2.6,1.2,5.6,1.8,8.8,1.8s6.2-0.6,8.8-1.8s4.9-2.8,6.8-4.9c1.9-2.1,3.3-4.5,4.3-7.3
		c1-2.8,1.5-5.9,1.5-9.2s-0.5-6.4-1.5-9.2s-2.5-5.3-4.3-7.4c-1.9-2.1-4.1-3.7-6.8-4.9c-2.6-1.2-5.6-1.7-8.9-1.7
		c-3.2,0-6.2,0.6-8.8,1.7c-2.6,1.2-4.9,2.8-6.7,4.9c-1.8,2.1-3.3,4.6-4.3,7.4S574.5,247.7,574.5,251z"/>
	<path id="XMLID_90_" class="st0" d="M643.3,279.5v-54.8c0-1.3,0.2-2.5,0.7-3.6s1.2-2.1,2.1-3.1c0.9-1,1.9-1.7,3.1-2.2
		s2.5-0.8,3.9-0.8c1.6,0,3.2,0.4,4.6,1.1c1.4,0.7,2.7,1.7,3.6,3.1l30.2,40.9v-37.6c0-2,0.7-3.8,2.2-5.2s3.3-2.2,5.4-2.2
		c2,0,3.8,0.7,5.2,2.2s2.2,3.2,2.2,5.2v55.3c0,1.2-0.2,2.3-0.7,3.4c-0.5,1.1-1.1,2.1-2,2.9c-0.8,0.9-1.8,1.5-2.9,2
		c-1.1,0.5-2.4,0.7-3.7,0.7c-1.4,0-2.8-0.3-4.1-1s-2.5-1.6-3.4-2.8l-31.3-42.9v39.3c0,2-0.7,3.8-2.2,5.2s-3.3,2.2-5.4,2.2
		c-2,0-3.8-0.7-5.2-2.2S643.3,281.6,643.3,279.5z"/>
	<path id="XMLID_92_" class="st0" d="M745.4,222.1c0-1.7,0.7-3.3,2-4.7s3.1-2.2,5.2-2.2c1.2,0,2.4,0.3,3.4,0.9
		c1.1,0.6,2,1.4,2.7,2.5l16,25.5l15.5-25.4c0.7-1.1,1.6-2,2.7-2.6c1.1-0.6,2.3-0.9,3.5-0.9c2.2,0,3.9,0.7,5.2,2.1c1.3,1.4,2,3,2,4.8
		c0,1.3-0.4,2.6-1.1,3.7l-20.4,31.6v22.1c0,2-0.7,3.8-2.2,5.2s-3.3,2.2-5.4,2.2c-2,0-3.8-0.7-5.2-2.2s-2.2-3.2-2.2-5.2v-22.1
		l-20.6-31.8C745.8,224.7,745.5,223.5,745.4,222.1z"/>
</g>
</svg>
