<?xml version="1.0" encoding="utf-8"?>
<!-- Generator: Adobe Illustrator 19.0.0, SVG Export Plug-In . SVG Version: 6.00 Build 0)  -->
<svg version="1.1" id="Layer_1" xmlns="http://www.w3.org/2000/svg" xmlns:xlink="http://www.w3.org/1999/xlink" x="0px" y="0px"
	 viewBox="0 117 501 268" style="enable-background:new 0 117 501 268;" xml:space="preserve">
<style type="text/css">
	.st0{fill:#AFB7BA;}
	.st1{fill:#E2E2E2;}
	.st2{fill:#F2F2F2;}
</style>
<circle id="XMLID_23_" class="st0" cx="366" cy="250" r="124"/>
<path id="XMLID_20_" class="st1" d="M432,316c36.6-36.6,36.6-95.6,0-132.2s-95.6-36.6-132.2,0"/>
<path id="XMLID_25_" class="st2" d="M299.9,183.9c-36.6,36.6-36.6,95.6,0,132.2s95.6,36.6,132.2,0"/>
<rect id="XMLID_24_" x="259.8" y="234.3" transform="matrix(-0.7071 -0.7071 0.7071 -0.7071 450.0018 691.5587)" class="st0" width="216.8" height="36.5"/>
<circle id="XMLID_26_" class="st0" cx="366" cy="250" r="41.3"/>
<circle id="XMLID_28_" class="st2" cx="364.7" cy="251.3" r="20.2"/>
<path id="XMLID_92_" class="st0" d="M8.4,151c0-5.9,2.4-11.5,6.9-16.3s10.9-7.7,18.2-7.7c4.2,0,8.3,1,11.8,3.1
	c3.8,2.1,6.9,4.9,9.4,8.7l55.6,88.6l53.9-88.3c2.4-3.8,5.6-6.9,9.4-9c3.8-2.1,8-3.1,12.2-3.1c7.6,0,13.6,2.4,18.1,7.3
	c4.5,4.9,6.9,10.4,6.9,16.7c0,4.5-1.4,9-3.8,12.9l-71,109.8v76.8c0,6.9-2.4,13.2-7.6,18.1c-5.2,4.9-11.5,7.6-18.8,7.6
	c-6.9,0-13.2-2.4-18.1-7.6c-4.9-5.2-7.6-11.1-7.6-18.1v-76.8L12.3,163.2C9.8,160,8.8,155.9,8.4,151z"/>
</svg>
